<mxfile host="app.diagrams.net" modified="2021-12-09T07:36:33.919Z" agent="5.0 (Windows NT 10.0; Win64; x64) AppleWebKit/537.36 (KHTML, like Gecko) Chrome/96.0.4664.55 Safari/537.36 Edg/96.0.1054.43" etag="2-zXisOzvWXUTiZDeswo" version="15.8.8" type="github">
  <diagram id="FZH4F-DujJX_YMt7-FlD" name="Page-1">
    <mxGraphModel dx="1038" dy="588" grid="1" gridSize="10" guides="1" tooltips="1" connect="1" arrows="1" fold="1" page="1" pageScale="1" pageWidth="827" pageHeight="1169" math="0" shadow="0">
      <root>
        <mxCell id="0" />
        <mxCell id="1" parent="0" />
        <mxCell id="Z0l4_3K4JnTkowfyXfPu-1" value="&lt;font style=&quot;font-size: 18px&quot;&gt;制作数据集&lt;/font&gt;" style="rounded=0;whiteSpace=wrap;html=1;" parent="1" vertex="1">
          <mxGeometry x="280" y="150" width="120" height="60" as="geometry" />
        </mxCell>
        <mxCell id="qqcmz16b4kr3nw1_V0D8-1" value="&lt;font style=&quot;font-size: 18px&quot;&gt;收集数据&lt;/font&gt;" style="rounded=0;whiteSpace=wrap;html=1;" parent="1" vertex="1">
          <mxGeometry x="120" y="150" width="120" height="60" as="geometry" />
        </mxCell>
        <mxCell id="qqcmz16b4kr3nw1_V0D8-2" value="" style="endArrow=classic;html=1;rounded=0;fontSize=18;exitX=1;exitY=0.5;exitDx=0;exitDy=0;entryX=0;entryY=0.5;entryDx=0;entryDy=0;" parent="1" source="qqcmz16b4kr3nw1_V0D8-1" target="Z0l4_3K4JnTkowfyXfPu-1" edge="1">
          <mxGeometry width="50" height="50" relative="1" as="geometry">
            <mxPoint x="470" y="310" as="sourcePoint" />
            <mxPoint x="350" y="250" as="targetPoint" />
          </mxGeometry>
        </mxCell>
        <mxCell id="qqcmz16b4kr3nw1_V0D8-5" value="&lt;span lang=&quot;EN-US&quot; style=&quot;font-size: 12pt ; font-family: &amp;#34;times new roman&amp;#34; , serif&quot;&gt;LabelImg&lt;/span&gt;" style="rounded=0;whiteSpace=wrap;html=1;fontSize=18;" parent="1" vertex="1">
          <mxGeometry x="450" y="15" width="120" height="60" as="geometry" />
        </mxCell>
        <mxCell id="qqcmz16b4kr3nw1_V0D8-21" style="edgeStyle=orthogonalEdgeStyle;rounded=0;orthogonalLoop=1;jettySize=auto;html=1;exitX=0.5;exitY=1;exitDx=0;exitDy=0;entryX=0.5;entryY=0;entryDx=0;entryDy=0;dashed=1;fontSize=18;shape=flexArrow;fillColor=none;gradientColor=#ffffff;startArrow=none;" parent="1" source="qqcmz16b4kr3nw1_V0D8-26" target="qqcmz16b4kr3nw1_V0D8-8" edge="1">
          <mxGeometry relative="1" as="geometry" />
        </mxCell>
        <mxCell id="qqcmz16b4kr3nw1_V0D8-6" value="&lt;span lang=&quot;EN-US&quot; style=&quot;font-size: 12pt ; font-family: &amp;#34;times new roman&amp;#34; , serif&quot;&gt;VOC&lt;/span&gt;" style="rounded=0;whiteSpace=wrap;html=1;fontSize=18;" parent="1" vertex="1">
          <mxGeometry x="450" y="110" width="120" height="60" as="geometry" />
        </mxCell>
        <mxCell id="qqcmz16b4kr3nw1_V0D8-8" value="&lt;span lang=&quot;EN-US&quot; style=&quot;font-size: 12pt ; font-family: &amp;#34;times new roman&amp;#34; , serif&quot;&gt;Darknet53&lt;/span&gt;" style="rounded=0;whiteSpace=wrap;html=1;fontSize=18;" parent="1" vertex="1">
          <mxGeometry x="450" y="285" width="120" height="60" as="geometry" />
        </mxCell>
        <mxCell id="qqcmz16b4kr3nw1_V0D8-9" value="" style="shape=curlyBracket;whiteSpace=wrap;html=1;rounded=1;fontSize=18;" parent="1" vertex="1">
          <mxGeometry x="400" y="15" width="20" height="330" as="geometry" />
        </mxCell>
        <mxCell id="qqcmz16b4kr3nw1_V0D8-12" value="标注" style="text;strokeColor=none;fillColor=none;align=left;verticalAlign=middle;spacingLeft=4;spacingRight=4;overflow=hidden;points=[[0,0.5],[1,0.5]];portConstraint=eastwest;rotatable=0;fontSize=18;" parent="1" vertex="1">
          <mxGeometry x="580" y="30" width="50" height="30" as="geometry" />
        </mxCell>
        <mxCell id="qqcmz16b4kr3nw1_V0D8-13" value="数据集生成" style="text;strokeColor=none;fillColor=none;align=left;verticalAlign=middle;spacingLeft=4;spacingRight=4;overflow=hidden;points=[[0,0.5],[1,0.5]];portConstraint=eastwest;rotatable=0;fontSize=18;" parent="1" vertex="1">
          <mxGeometry x="580" y="125" width="100" height="30" as="geometry" />
        </mxCell>
        <mxCell id="qqcmz16b4kr3nw1_V0D8-14" value="预训练" style="text;strokeColor=none;fillColor=none;align=left;verticalAlign=middle;spacingLeft=4;spacingRight=4;overflow=hidden;points=[[0,0.5],[1,0.5]];portConstraint=eastwest;rotatable=0;fontSize=18;" parent="1" vertex="1">
          <mxGeometry x="580" y="300" width="80" height="30" as="geometry" />
        </mxCell>
        <mxCell id="qqcmz16b4kr3nw1_V0D8-20" value="" style="shape=flexArrow;endArrow=classic;html=1;rounded=0;dashed=1;fontSize=18;exitX=0.5;exitY=1;exitDx=0;exitDy=0;entryX=0.5;entryY=0;entryDx=0;entryDy=0;" parent="1" source="qqcmz16b4kr3nw1_V0D8-5" target="qqcmz16b4kr3nw1_V0D8-6" edge="1">
          <mxGeometry width="50" height="50" relative="1" as="geometry">
            <mxPoint x="370" y="210" as="sourcePoint" />
            <mxPoint x="420" y="160" as="targetPoint" />
          </mxGeometry>
        </mxCell>
        <mxCell id="qqcmz16b4kr3nw1_V0D8-26" value="转换" style="ellipse;whiteSpace=wrap;html=1;aspect=fixed;dashed=1;fontSize=18;gradientColor=none;" parent="1" vertex="1">
          <mxGeometry x="480" y="190" width="60" height="60" as="geometry" />
        </mxCell>
        <mxCell id="qqcmz16b4kr3nw1_V0D8-29" value="" style="edgeStyle=orthogonalEdgeStyle;rounded=0;orthogonalLoop=1;jettySize=auto;html=1;exitX=0.5;exitY=1;exitDx=0;exitDy=0;entryX=0.5;entryY=0;entryDx=0;entryDy=0;dashed=1;fontSize=18;shape=flexArrow;fillColor=none;gradientColor=#ffffff;endArrow=none;" parent="1" source="qqcmz16b4kr3nw1_V0D8-6" target="qqcmz16b4kr3nw1_V0D8-26" edge="1">
          <mxGeometry relative="1" as="geometry">
            <mxPoint x="510" y="170" as="sourcePoint" />
            <mxPoint x="510" y="285" as="targetPoint" />
          </mxGeometry>
        </mxCell>
      </root>
    </mxGraphModel>
  </diagram>
</mxfile>
